# xmcd
#
# Track frame offsets:
#	150
#	11989
#	26642
#	41282
#
# Disc length: 712 seconds
#
# Revision: 0
# Processed by: cddbd v1.5.2PL0 Copyright (c) Steve Scherf et al.
# Submitted via: audiograbber 1.83.01
#
DISCID=2802c604
DTITLE=Miss Vicki Lynn - Hey There Lonely Miss Vicki Lynn
DYEAR=2000
DGENRE=Country
TTITLE0=Hey There Lonely
TTITLE1=Without A World
TTITLE2=Pieces Of My Heart
TTITLE3=I Can Count On You
EXTD=
EXTT0=
EXTT1=
EXTT2=
EXTT3=
PLAYORDER=
